<?xml version="1.0" encoding="utf-8" standalone="no"?>
<!DOCTYPE svg PUBLIC "-//W3C//DTD SVG 1.1//EN"
  "http://www.w3.org/Graphics/SVG/1.1/DTD/svg11.dtd">
<svg xmlns:xlink="http://www.w3.org/1999/xlink" width="547.2pt" height="345.6pt" viewBox="0 0 547.2 345.6" xmlns="http://www.w3.org/2000/svg" version="1.1">
 <metadata>
  <rdf:RDF xmlns:dc="http://purl.org/dc/elements/1.1/" xmlns:cc="http://creativecommons.org/ns#" xmlns:rdf="http://www.w3.org/1999/02/22-rdf-syntax-ns#">
   <cc:Work>
    <dc:type rdf:resource="http://purl.org/dc/dcmitype/StillImage"/>
    <dc:date>2026-09-07T11:14:38.140706</dc:date>
    <dc:format>image/svg+xml</dc:format>
    <dc:creator>
     <cc:Agent>
      <dc:title>Matplotlib v3.11.0, https://matplotlib.org/</dc:title>
     </cc:Agent>
    </dc:creator>
   </cc:Work>
  </rdf:RDF>
 </metadata>
 <defs>
  <style type="text/css">*{stroke-linejoin: round; stroke-linecap: butt}</style>
 </defs>
 <g id="figure_1">
  <g id="patch_1">
   <path d="M 0 345.6 
L 547.2 345.6 
L 547.2 0 
L 0 0 
z
" style="fill: #ffffff"/>
  </g>
  <g id="axes_1">
   <g id="patch_2">
    <path d="M 164.16 298.944 
L 528.048 298.944 
L 528.048 12.096 
L 164.16 12.096 
z
" style="fill: #ffffff"/>
   </g>
   <g id="patch_3">
    <path d="M 296.172815 298.944 
L 399.272516 298.944 
L 399.272516 12.096 
L 296.172815 12.096 
z
" clip-path="url(#p090011163a)" style="fill: #a9a9a9; opacity: 0.18; stroke: #a9a9a9; stroke-linejoin: miter"/>
   </g>
   <g id="patch_4">
    <path d="M 353.987596 285.905455 
L 354.00922 285.905455 
L 354.00922 269.099013 
L 353.987596 269.099013 
z
" clip-path="url(#p090011163a)" style="fill: url(#h22903326e9); stroke: #000000; stroke-linejoin: miter"/>
   </g>
   <g id="patch_5">
    <path d="M 353.104758 258.798291 
L 354.677109 258.798291 
L 354.677109 241.99185 
L 353.104758 241.99185 
z
" clip-path="url(#p090011163a)" style="fill: url(#h22903326e9); stroke: #000000; stroke-linejoin: miter"/>
   </g>
   <g id="patch_6">
    <path d="M 352.689636 231.691128 
L 355.067826 231.691128 
L 355.067826 214.884687 
L 352.689636 214.884687 
z
" clip-path="url(#p090011163a)" style="fill: url(#h22903326e9); stroke: #000000; stroke-linejoin: miter"/>
   </g>
   <g id="patch_7">
    <path d="M 352.689636 204.583965 
L 355.067826 204.583965 
L 355.067826 187.777524 
L 352.689636 187.777524 
z
" clip-path="url(#p090011163a)" style="fill: url(#h22903326e9); stroke: #000000; stroke-linejoin: miter"/>
   </g>
   <g id="patch_8">
    <path d="M 351.222082 177.476802 
L 356.276018 177.476802 
L 356.276018 160.670361 
L 351.222082 160.670361 
z
" clip-path="url(#p090011163a)" style="fill: url(#h22903326e9); stroke: #000000; stroke-linejoin: miter"/>
   </g>
   <g id="patch_9">
    <path d="M 342.219139 150.369639 
L 363.622845 150.369639 
L 363.622845 133.563198 
L 342.219139 133.563198 
z
" clip-path="url(#p090011163a)" style="fill: url(#h22903326e9); stroke: #000000; stroke-linejoin: miter"/>
   </g>
   <g id="patch_10">
    <path d="M 322.122564 123.262476 
L 377.452093 123.262476 
L 377.452093 106.456035 
L 322.122564 106.456035 
z
" clip-path="url(#p090011163a)" style="fill: url(#h22903326e9); stroke: #000000; stroke-linejoin: miter"/>
   </g>
   <g id="patch_11">
    <path d="M 306.452041 96.155313 
L 428.358473 96.155313 
L 428.358473 79.348872 
L 306.452041 79.348872 
z
" clip-path="url(#p090011163a)" style="fill: url(#h22903326e9); stroke: #000000; stroke-linejoin: miter"/>
   </g>
   <g id="patch_12">
    <path d="M 305.832716 69.04815 
L 429.284891 69.04815 
L 429.284891 52.241709 
L 305.832716 52.241709 
z
" clip-path="url(#p090011163a)" style="fill: url(#h22903326e9); stroke: #000000; stroke-linejoin: miter"/>
   </g>
   <g id="patch_13">
    <path d="M 201.876162 41.940987 
L 541.725351 41.940987 
L 541.725351 25.134545 
L 201.876162 25.134545 
z
" clip-path="url(#p090011163a)" style="fill: url(#h22903326e9); stroke: #000000; stroke-linejoin: miter"/>
   </g>
   <g id="matplotlib.axis_1">
    <g id="xtick_1">
     <g id="line2d_1">
      <defs>
       <path id="mec998c0b1b" d="M 0 0 
L 0 4 
" style="stroke: #000000"/>
      </defs>
      <g>
       <use xlink:href="#mec998c0b1b" x="220.65365" y="298.944" style="stroke: #000000"/>
      </g>
     </g>
     <g id="text_1">
      <!-- $\mathdefault{10^{0}}$ -->
      <g transform="translate(211.85365 315.844) scale(0.1 -0.1)">
       <defs>
        <path id="DejaVuSans-14" d="M 794 531 
L 1825 531 
L 1825 4091 
L 703 3866 
L 703 4441 
L 1819 4666 
L 2450 4666 
L 2450 531 
L 3481 531 
L 3481 0 
L 794 0 
L 794 531 
z
" transform="scale(0.015625)"/>
        <path id="DejaVuSans-13" d="M 2034 4250 
Q 1547 4250 1301 3770 
Q 1056 3291 1056 2328 
Q 1056 1369 1301 889 
Q 1547 409 2034 409 
Q 2525 409 2770 889 
Q 3016 1369 3016 2328 
Q 3016 3291 2770 3770 
Q 2525 4250 2034 4250 
z
M 2034 4750 
Q 2819 4750 3233 4129 
Q 3647 3509 3647 2328 
Q 3647 1150 3233 529 
Q 2819 -91 2034 -91 
Q 1250 -91 836 529 
Q 422 1150 422 2328 
Q 422 3509 836 4129 
Q 1250 4750 2034 4750 
z
" transform="scale(0.015625)"/>
       </defs>
       <use xlink:href="#DejaVuSans-14" transform="translate(0 0.746875)"/>
       <use xlink:href="#DejaVuSans-13" transform="translate(63.623047 0.746875)"/>
       <use xlink:href="#DejaVuSans-13" transform="translate(128.203125 42.046875) scale(0.7)"/>
      </g>
     </g>
    </g>
    <g id="xtick_2">
     <g id="line2d_2">
      <g>
       <use xlink:href="#mec998c0b1b" x="328.69715" y="298.944" style="stroke: #000000"/>
      </g>
     </g>
     <g id="text_2">
      <!-- $\mathdefault{10^{1}}$ -->
      <g transform="translate(319.89715 315.744) scale(0.1 -0.1)">
       <use xlink:href="#DejaVuSans-14" transform="translate(0 0.665625)"/>
       <use xlink:href="#DejaVuSans-13" transform="translate(63.623047 0.665625)"/>
       <use xlink:href="#DejaVuSans-14" transform="translate(128.203125 41.965625) scale(0.7)"/>
      </g>
     </g>
    </g>
    <g id="xtick_3">
     <g id="line2d_3">
      <g>
       <use xlink:href="#mec998c0b1b" x="436.74065" y="298.944" style="stroke: #000000"/>
      </g>
     </g>
     <g id="text_3">
      <!-- $\mathdefault{10^{2}}$ -->
      <g transform="translate(427.94065 315.844) scale(0.1 -0.1)">
       <defs>
        <path id="DejaVuSans-15" d="M 1228 531 
L 3431 531 
L 3431 0 
L 469 0 
L 469 531 
Q 828 903 1448 1529 
Q 2069 2156 2228 2338 
Q 2531 2678 2651 2914 
Q 2772 3150 2772 3378 
Q 2772 3750 2511 3984 
Q 2250 4219 1831 4219 
Q 1534 4219 1204 4116 
Q 875 4013 500 3803 
L 500 4441 
Q 881 4594 1212 4672 
Q 1544 4750 1819 4750 
Q 2544 4750 2975 4387 
Q 3406 4025 3406 3419 
Q 3406 3131 3298 2873 
Q 3191 2616 2906 2266 
Q 2828 2175 2409 1742 
Q 1991 1309 1228 531 
z
" transform="scale(0.015625)"/>
       </defs>
       <use xlink:href="#DejaVuSans-14" transform="translate(0 0.746875)"/>
       <use xlink:href="#DejaVuSans-13" transform="translate(63.623047 0.746875)"/>
       <use xlink:href="#DejaVuSans-15" transform="translate(128.203125 42.046875) scale(0.7)"/>
      </g>
     </g>
    </g>
    <g id="xtick_4">
     <g id="line2d_4">
      <defs>
       <path id="m1951e4aaa5" d="M 0 0 
L 0 2 
" style="stroke: #000000; stroke-width: 0.6"/>
      </defs>
      <g>
       <use xlink:href="#m1951e4aaa5" x="164.16" y="298.944" style="stroke: #000000; stroke-width: 0.6"/>
      </g>
     </g>
    </g>
    <g id="xtick_5">
     <g id="line2d_5">
      <g>
       <use xlink:href="#m1951e4aaa5" x="177.658818" y="298.944" style="stroke: #000000; stroke-width: 0.6"/>
      </g>
     </g>
    </g>
    <g id="xtick_6">
     <g id="line2d_6">
      <g>
       <use xlink:href="#m1951e4aaa5" x="188.129315" y="298.944" style="stroke: #000000; stroke-width: 0.6"/>
      </g>
     </g>
    </g>
    <g id="xtick_7">
     <g id="line2d_7">
      <g>
       <use xlink:href="#m1951e4aaa5" x="196.684334" y="298.944" style="stroke: #000000; stroke-width: 0.6"/>
      </g>
     </g>
    </g>
    <g id="xtick_8">
     <g id="line2d_8">
      <g>
       <use xlink:href="#m1951e4aaa5" x="203.9175" y="298.944" style="stroke: #000000; stroke-width: 0.6"/>
      </g>
     </g>
    </g>
    <g id="xtick_9">
     <g id="line2d_9">
      <g>
       <use xlink:href="#m1951e4aaa5" x="210.183153" y="298.944" style="stroke: #000000; stroke-width: 0.6"/>
      </g>
     </g>
    </g>
    <g id="xtick_10">
     <g id="line2d_10">
      <g>
       <use xlink:href="#m1951e4aaa5" x="215.70985" y="298.944" style="stroke: #000000; stroke-width: 0.6"/>
      </g>
     </g>
    </g>
    <g id="xtick_11">
     <g id="line2d_11">
      <g>
       <use xlink:href="#m1951e4aaa5" x="253.177984" y="298.944" style="stroke: #000000; stroke-width: 0.6"/>
      </g>
     </g>
    </g>
    <g id="xtick_12">
     <g id="line2d_12">
      <g>
       <use xlink:href="#m1951e4aaa5" x="272.2035" y="298.944" style="stroke: #000000; stroke-width: 0.6"/>
      </g>
     </g>
    </g>
    <g id="xtick_13">
     <g id="line2d_13">
      <g>
       <use xlink:href="#m1951e4aaa5" x="285.702318" y="298.944" style="stroke: #000000; stroke-width: 0.6"/>
      </g>
     </g>
    </g>
    <g id="xtick_14">
     <g id="line2d_14">
      <g>
       <use xlink:href="#m1951e4aaa5" x="296.172815" y="298.944" style="stroke: #000000; stroke-width: 0.6"/>
      </g>
     </g>
    </g>
    <g id="xtick_15">
     <g id="line2d_15">
      <g>
       <use xlink:href="#m1951e4aaa5" x="304.727834" y="298.944" style="stroke: #000000; stroke-width: 0.6"/>
      </g>
     </g>
    </g>
    <g id="xtick_16">
     <g id="line2d_16">
      <g>
       <use xlink:href="#m1951e4aaa5" x="311.961" y="298.944" style="stroke: #000000; stroke-width: 0.6"/>
      </g>
     </g>
    </g>
    <g id="xtick_17">
     <g id="line2d_17">
      <g>
       <use xlink:href="#m1951e4aaa5" x="318.226653" y="298.944" style="stroke: #000000; stroke-width: 0.6"/>
      </g>
     </g>
    </g>
    <g id="xtick_18">
     <g id="line2d_18">
      <g>
       <use xlink:href="#m1951e4aaa5" x="323.75335" y="298.944" style="stroke: #000000; stroke-width: 0.6"/>
      </g>
     </g>
    </g>
    <g id="xtick_19">
     <g id="line2d_19">
      <g>
       <use xlink:href="#m1951e4aaa5" x="361.221484" y="298.944" style="stroke: #000000; stroke-width: 0.6"/>
      </g>
     </g>
    </g>
    <g id="xtick_20">
     <g id="line2d_20">
      <g>
       <use xlink:href="#m1951e4aaa5" x="380.247" y="298.944" style="stroke: #000000; stroke-width: 0.6"/>
      </g>
     </g>
    </g>
    <g id="xtick_21">
     <g id="line2d_21">
      <g>
       <use xlink:href="#m1951e4aaa5" x="393.745819" y="298.944" style="stroke: #000000; stroke-width: 0.6"/>
      </g>
     </g>
    </g>
    <g id="xtick_22">
     <g id="line2d_22">
      <g>
       <use xlink:href="#m1951e4aaa5" x="404.216316" y="298.944" style="stroke: #000000; stroke-width: 0.6"/>
      </g>
     </g>
    </g>
    <g id="xtick_23">
     <g id="line2d_23">
      <g>
       <use xlink:href="#m1951e4aaa5" x="412.771334" y="298.944" style="stroke: #000000; stroke-width: 0.6"/>
      </g>
     </g>
    </g>
    <g id="xtick_24">
     <g id="line2d_24">
      <g>
       <use xlink:href="#m1951e4aaa5" x="420.0045" y="298.944" style="stroke: #000000; stroke-width: 0.6"/>
      </g>
     </g>
    </g>
    <g id="xtick_25">
     <g id="line2d_25">
      <g>
       <use xlink:href="#m1951e4aaa5" x="426.270153" y="298.944" style="stroke: #000000; stroke-width: 0.6"/>
      </g>
     </g>
    </g>
    <g id="xtick_26">
     <g id="line2d_26">
      <g>
       <use xlink:href="#m1951e4aaa5" x="431.79685" y="298.944" style="stroke: #000000; stroke-width: 0.6"/>
      </g>
     </g>
    </g>
    <g id="xtick_27">
     <g id="line2d_27">
      <g>
       <use xlink:href="#m1951e4aaa5" x="469.264984" y="298.944" style="stroke: #000000; stroke-width: 0.6"/>
      </g>
     </g>
    </g>
    <g id="xtick_28">
     <g id="line2d_28">
      <g>
       <use xlink:href="#m1951e4aaa5" x="488.2905" y="298.944" style="stroke: #000000; stroke-width: 0.6"/>
      </g>
     </g>
    </g>
    <g id="xtick_29">
     <g id="line2d_29">
      <g>
       <use xlink:href="#m1951e4aaa5" x="501.789319" y="298.944" style="stroke: #000000; stroke-width: 0.6"/>
      </g>
     </g>
    </g>
    <g id="xtick_30">
     <g id="line2d_30">
      <g>
       <use xlink:href="#m1951e4aaa5" x="512.259816" y="298.944" style="stroke: #000000; stroke-width: 0.6"/>
      </g>
     </g>
    </g>
    <g id="xtick_31">
     <g id="line2d_31">
      <g>
       <use xlink:href="#m1951e4aaa5" x="520.814835" y="298.944" style="stroke: #000000; stroke-width: 0.6"/>
      </g>
     </g>
    </g>
    <g id="xtick_32">
     <g id="line2d_32">
      <g>
       <use xlink:href="#m1951e4aaa5" x="528.048" y="298.944" style="stroke: #000000; stroke-width: 0.6"/>
      </g>
     </g>
    </g>
    <g id="text_4">
     <!-- Predicted critical diameter, mm  (log scale) -->
     <g transform="translate(237.94775 329.844781) scale(0.1 -0.1)">
      <defs>
       <path id="DejaVuSans-33" d="M 1259 4147 
L 1259 2394 
L 2053 2394 
Q 2494 2394 2734 2622 
Q 2975 2850 2975 3272 
Q 2975 3691 2734 3919 
Q 2494 4147 2053 4147 
L 1259 4147 
z
M 628 4666 
L 2053 4666 
Q 2838 4666 3239 4311 
Q 3641 3956 3641 3272 
Q 3641 2581 3239 2228 
Q 2838 1875 2053 1875 
L 1259 1875 
L 1259 0 
L 628 0 
L 628 4666 
z
" transform="scale(0.015625)"/>
       <path id="DejaVuSans-55" d="M 2631 2963 
Q 2534 3019 2420 3045 
Q 2306 3072 2169 3072 
Q 1681 3072 1420 2755 
Q 1159 2438 1159 1844 
L 1159 0 
L 581 0 
L 581 3500 
L 1159 3500 
L 1159 2956 
Q 1341 3275 1631 3429 
Q 1922 3584 2338 3584 
Q 2397 3584 2469 3576 
Q 2541 3569 2628 3553 
L 2631 2963 
z
" transform="scale(0.015625)"/>
       <path id="DejaVuSans-48" d="M 3597 1894 
L 3597 1613 
L 953 1613 
Q 991 1019 1311 708 
Q 1631 397 2203 397 
Q 2534 397 2845 478 
Q 3156 559 3463 722 
L 3463 178 
Q 3153 47 2828 -22 
Q 2503 -91 2169 -91 
Q 1331 -91 842 396 
Q 353 884 353 1716 
Q 353 2575 817 3079 
Q 1281 3584 2069 3584 
Q 2775 3584 3186 3129 
Q 3597 2675 3597 1894 
z
M 3022 2063 
Q 3016 2534 2758 2815 
Q 2500 3097 2075 3097 
Q 1594 3097 1305 2825 
Q 1016 2553 972 2059 
L 3022 2063 
z
" transform="scale(0.015625)"/>
       <path id="DejaVuSans-47" d="M 2906 2969 
L 2906 4863 
L 3481 4863 
L 3481 0 
L 2906 0 
L 2906 525 
Q 2725 213 2448 61 
Q 2172 -91 1784 -91 
Q 1150 -91 751 415 
Q 353 922 353 1747 
Q 353 2572 751 3078 
Q 1150 3584 1784 3584 
Q 2172 3584 2448 3432 
Q 2725 3281 2906 2969 
z
M 947 1747 
Q 947 1113 1208 752 
Q 1469 391 1925 391 
Q 2381 391 2643 752 
Q 2906 1113 2906 1747 
Q 2906 2381 2643 2742 
Q 2381 3103 1925 3103 
Q 1469 3103 1208 2742 
Q 947 2381 947 1747 
z
" transform="scale(0.015625)"/>
       <path id="DejaVuSans-4c" d="M 603 3500 
L 1178 3500 
L 1178 0 
L 603 0 
L 603 3500 
z
M 603 4863 
L 1178 4863 
L 1178 4134 
L 603 4134 
L 603 4863 
z
" transform="scale(0.015625)"/>
       <path id="DejaVuSans-46" d="M 3122 3366 
L 3122 2828 
Q 2878 2963 2633 3030 
Q 2388 3097 2138 3097 
Q 1578 3097 1268 2742 
Q 959 2388 959 1747 
Q 959 1106 1268 751 
Q 1578 397 2138 397 
Q 2388 397 2633 464 
Q 2878 531 3122 666 
L 3122 134 
Q 2881 22 2623 -34 
Q 2366 -91 2075 -91 
Q 1284 -91 818 406 
Q 353 903 353 1747 
Q 353 2603 823 3093 
Q 1294 3584 2113 3584 
Q 2378 3584 2631 3529 
Q 2884 3475 3122 3366 
z
" transform="scale(0.015625)"/>
       <path id="DejaVuSans-57" d="M 1172 4494 
L 1172 3500 
L 2356 3500 
L 2356 3053 
L 1172 3053 
L 1172 1153 
Q 1172 725 1289 603 
Q 1406 481 1766 481 
L 2356 481 
L 2356 0 
L 1766 0 
Q 1100 0 847 248 
Q 594 497 594 1153 
L 594 3053 
L 172 3053 
L 172 3500 
L 594 3500 
L 594 4494 
L 1172 4494 
z
" transform="scale(0.015625)"/>
       <path id="DejaVuSans-3" transform="scale(0.015625)"/>
       <path id="DejaVuSans-44" d="M 2194 1759 
Q 1497 1759 1228 1600 
Q 959 1441 959 1056 
Q 959 750 1161 570 
Q 1363 391 1709 391 
Q 2188 391 2477 730 
Q 2766 1069 2766 1631 
L 2766 1759 
L 2194 1759 
z
M 3341 1997 
L 3341 0 
L 2766 0 
L 2766 531 
Q 2569 213 2275 61 
Q 1981 -91 1556 -91 
Q 1019 -91 701 211 
Q 384 513 384 1019 
Q 384 1609 779 1909 
Q 1175 2209 1959 2209 
L 2766 2209 
L 2766 2266 
Q 2766 2663 2505 2880 
Q 2244 3097 1772 3097 
Q 1472 3097 1187 3025 
Q 903 2953 641 2809 
L 641 3341 
Q 956 3463 1253 3523 
Q 1550 3584 1831 3584 
Q 2591 3584 2966 3190 
Q 3341 2797 3341 1997 
z
" transform="scale(0.015625)"/>
       <path id="DejaVuSans-4f" d="M 603 4863 
L 1178 4863 
L 1178 0 
L 603 0 
L 603 4863 
z
" transform="scale(0.015625)"/>
       <path id="DejaVuSans-50" d="M 3328 2828 
Q 3544 3216 3844 3400 
Q 4144 3584 4550 3584 
Q 5097 3584 5394 3201 
Q 5691 2819 5691 2113 
L 5691 0 
L 5113 0 
L 5113 2094 
Q 5113 2597 4934 2840 
Q 4756 3084 4391 3084 
Q 3944 3084 3684 2787 
Q 3425 2491 3425 1978 
L 3425 0 
L 2847 0 
L 2847 2094 
Q 2847 2600 2669 2842 
Q 2491 3084 2119 3084 
Q 1678 3084 1418 2786 
Q 1159 2488 1159 1978 
L 1159 0 
L 581 0 
L 581 3500 
L 1159 3500 
L 1159 2956 
Q 1356 3278 1631 3431 
Q 1906 3584 2284 3584 
Q 2666 3584 2933 3390 
Q 3200 3197 3328 2828 
z
" transform="scale(0.015625)"/>
       <path id="DejaVuSans-f" d="M 750 794 
L 1409 794 
L 1409 256 
L 897 -744 
L 494 -744 
L 750 256 
L 750 794 
z
" transform="scale(0.015625)"/>
       <path id="DejaVuSans-b" d="M 1984 4856 
Q 1566 4138 1362 3434 
Q 1159 2731 1159 2009 
Q 1159 1288 1364 580 
Q 1569 -128 1984 -844 
L 1484 -844 
Q 1016 -109 783 600 
Q 550 1309 550 2009 
Q 550 2706 781 3412 
Q 1013 4119 1484 4856 
L 1984 4856 
z
" transform="scale(0.015625)"/>
       <path id="DejaVuSans-52" d="M 1959 3097 
Q 1497 3097 1228 2736 
Q 959 2375 959 1747 
Q 959 1119 1226 758 
Q 1494 397 1959 397 
Q 2419 397 2687 759 
Q 2956 1122 2956 1747 
Q 2956 2369 2687 2733 
Q 2419 3097 1959 3097 
z
M 1959 3584 
Q 2709 3584 3137 3096 
Q 3566 2609 3566 1747 
Q 3566 888 3137 398 
Q 2709 -91 1959 -91 
Q 1206 -91 779 398 
Q 353 888 353 1747 
Q 353 2609 779 3096 
Q 1206 3584 1959 3584 
z
" transform="scale(0.015625)"/>
       <path id="DejaVuSans-4a" d="M 2906 1791 
Q 2906 2416 2648 2759 
Q 2391 3103 1925 3103 
Q 1463 3103 1205 2759 
Q 947 2416 947 1791 
Q 947 1169 1205 825 
Q 1463 481 1925 481 
Q 2391 481 2648 825 
Q 2906 1169 2906 1791 
z
M 3481 434 
Q 3481 -459 3084 -895 
Q 2688 -1331 1869 -1331 
Q 1566 -1331 1297 -1286 
Q 1028 -1241 775 -1147 
L 775 -588 
Q 1028 -725 1275 -790 
Q 1522 -856 1778 -856 
Q 2344 -856 2625 -561 
Q 2906 -266 2906 331 
L 2906 616 
Q 2728 306 2450 153 
Q 2172 0 1784 0 
Q 1141 0 747 490 
Q 353 981 353 1791 
Q 353 2603 747 3093 
Q 1141 3584 1784 3584 
Q 2172 3584 2450 3431 
Q 2728 3278 2906 2969 
L 2906 3500 
L 3481 3500 
L 3481 434 
z
" transform="scale(0.015625)"/>
       <path id="DejaVuSans-56" d="M 2834 3397 
L 2834 2853 
Q 2591 2978 2328 3040 
Q 2066 3103 1784 3103 
Q 1356 3103 1142 2972 
Q 928 2841 928 2578 
Q 928 2378 1081 2264 
Q 1234 2150 1697 2047 
L 1894 2003 
Q 2506 1872 2764 1633 
Q 3022 1394 3022 966 
Q 3022 478 2636 193 
Q 2250 -91 1575 -91 
Q 1294 -91 989 -36 
Q 684 19 347 128 
L 347 722 
Q 666 556 975 473 
Q 1284 391 1588 391 
Q 1994 391 2212 530 
Q 2431 669 2431 922 
Q 2431 1156 2273 1281 
Q 2116 1406 1581 1522 
L 1381 1569 
Q 847 1681 609 1914 
Q 372 2147 372 2553 
Q 372 3047 722 3315 
Q 1072 3584 1716 3584 
Q 2034 3584 2315 3537 
Q 2597 3491 2834 3397 
z
" transform="scale(0.015625)"/>
       <path id="DejaVuSans-c" d="M 513 4856 
L 1013 4856 
Q 1481 4119 1714 3412 
Q 1947 2706 1947 2009 
Q 1947 1309 1714 600 
Q 1481 -109 1013 -844 
L 513 -844 
Q 928 -128 1133 580 
Q 1338 1288 1338 2009 
Q 1338 2731 1133 3434 
Q 928 4138 513 4856 
z
" transform="scale(0.015625)"/>
      </defs>
      <use xlink:href="#DejaVuSans-33"/>
      <use xlink:href="#DejaVuSans-55" transform="translate(58.546875 0)"/>
      <use xlink:href="#DejaVuSans-48" transform="translate(97.453125 0)"/>
      <use xlink:href="#DejaVuSans-47" transform="translate(158.984375 0)"/>
      <use xlink:href="#DejaVuSans-4c" transform="translate(222.46875 0)"/>
      <use xlink:href="#DejaVuSans-46" transform="translate(250.25 0)"/>
      <use xlink:href="#DejaVuSans-57" transform="translate(305.234375 0)"/>
      <use xlink:href="#DejaVuSans-48" transform="translate(344.4375 0)"/>
      <use xlink:href="#DejaVuSans-47" transform="translate(405.96875 0)"/>
      <use xlink:href="#DejaVuSans-3" transform="translate(469.453125 0)"/>
      <use xlink:href="#DejaVuSans-46" transform="translate(501.234375 0)"/>
      <use xlink:href="#DejaVuSans-55" transform="translate(556.21875 0)"/>
      <use xlink:href="#DejaVuSans-4c" transform="translate(597.328125 0)"/>
      <use xlink:href="#DejaVuSans-57" transform="translate(625.109375 0)"/>
      <use xlink:href="#DejaVuSans-4c" transform="translate(664.3125 0)"/>
      <use xlink:href="#DejaVuSans-46" transform="translate(692.09375 0)"/>
      <use xlink:href="#DejaVuSans-44" transform="translate(747.078125 0)"/>
      <use xlink:href="#DejaVuSans-4f" transform="translate(808.359375 0)"/>
      <use xlink:href="#DejaVuSans-3" transform="translate(836.140625 0)"/>
      <use xlink:href="#DejaVuSans-47" transform="translate(867.921875 0)"/>
      <use xlink:href="#DejaVuSans-4c" transform="translate(931.40625 0)"/>
      <use xlink:href="#DejaVuSans-44" transform="translate(959.1875 0)"/>
      <use xlink:href="#DejaVuSans-50" transform="translate(1020.46875 0)"/>
      <use xlink:href="#DejaVuSans-48" transform="translate(1117.875 0)"/>
      <use xlink:href="#DejaVuSans-57" transform="translate(1179.40625 0)"/>
      <use xlink:href="#DejaVuSans-48" transform="translate(1218.609375 0)"/>
      <use xlink:href="#DejaVuSans-55" transform="translate(1280.140625 0)"/>
      <use xlink:href="#DejaVuSans-f" transform="translate(1321.25 0)"/>
      <use xlink:href="#DejaVuSans-3" transform="translate(1353.03125 0)"/>
      <use xlink:href="#DejaVuSans-50" transform="translate(1384.8125 0)"/>
      <use xlink:href="#DejaVuSans-50" transform="translate(1482.21875 0)"/>
      <use xlink:href="#DejaVuSans-3" transform="translate(1579.625 0)"/>
      <use xlink:href="#DejaVuSans-3" transform="translate(1611.40625 0)"/>
      <use xlink:href="#DejaVuSans-b" transform="translate(1643.1875 0)"/>
      <use xlink:href="#DejaVuSans-4f" transform="translate(1682.203125 0)"/>
      <use xlink:href="#DejaVuSans-52" transform="translate(1709.984375 0)"/>
      <use xlink:href="#DejaVuSans-4a" transform="translate(1771.171875 0)"/>
      <use xlink:href="#DejaVuSans-3" transform="translate(1834.65625 0)"/>
      <use xlink:href="#DejaVuSans-56" transform="translate(1866.4375 0)"/>
      <use xlink:href="#DejaVuSans-46" transform="translate(1918.53125 0)"/>
      <use xlink:href="#DejaVuSans-44" transform="translate(1973.515625 0)"/>
      <use xlink:href="#DejaVuSans-4f" transform="translate(2034.796875 0)"/>
      <use xlink:href="#DejaVuSans-48" transform="translate(2062.578125 0)"/>
      <use xlink:href="#DejaVuSans-c" transform="translate(2124.109375 0)"/>
     </g>
    </g>
   </g>
   <g id="matplotlib.axis_2">
    <g id="ytick_1">
     <g id="line2d_33">
      <defs>
       <path id="md5007230e1" d="M 0 0 
L -4 0 
" style="stroke: #000000"/>
      </defs>
      <g>
       <use xlink:href="#md5007230e1" x="164.16" y="277.502234" style="stroke: #000000"/>
      </g>
     </g>
     <g id="text_5">
      <!-- $B_0$ bulk modulus (DFT) -->
      <g transform="translate(55.41 280.922234) scale(0.09 -0.09)">
       <defs>
        <path id="DejaVuSans-Oblique-25" d="M 1081 4666 
L 2694 4666 
Q 3350 4666 3675 4422 
Q 4000 4178 4000 3688 
Q 4000 3238 3720 2911 
Q 3441 2584 2988 2516 
Q 3375 2428 3569 2181 
Q 3763 1934 3763 1522 
Q 3763 819 3242 409 
Q 2722 0 1819 0 
L 172 0 
L 1081 4666 
z
M 1234 2228 
L 903 519 
L 1919 519 
Q 2491 519 2800 781 
Q 3109 1044 3109 1522 
Q 3109 1891 2904 2059 
Q 2700 2228 2247 2228 
L 1234 2228 
z
M 1606 4147 
L 1331 2741 
L 2272 2741 
Q 2775 2741 3058 2959 
Q 3341 3178 3341 3566 
Q 3341 3869 3150 4008 
Q 2959 4147 2541 4147 
L 1606 4147 
z
" transform="scale(0.015625)"/>
        <path id="DejaVuSans-45" d="M 3116 1747 
Q 3116 2381 2855 2742 
Q 2594 3103 2138 3103 
Q 1681 3103 1420 2742 
Q 1159 2381 1159 1747 
Q 1159 1113 1420 752 
Q 1681 391 2138 391 
Q 2594 391 2855 752 
Q 3116 1113 3116 1747 
z
M 1159 2969 
Q 1341 3281 1617 3432 
Q 1894 3584 2278 3584 
Q 2916 3584 3314 3078 
Q 3713 2572 3713 1747 
Q 3713 922 3314 415 
Q 2916 -91 2278 -91 
Q 1894 -91 1617 61 
Q 1341 213 1159 525 
L 1159 0 
L 581 0 
L 581 4863 
L 1159 4863 
L 1159 2969 
z
" transform="scale(0.015625)"/>
        <path id="DejaVuSans-58" d="M 544 1381 
L 544 3500 
L 1119 3500 
L 1119 1403 
Q 1119 906 1312 657 
Q 1506 409 1894 409 
Q 2359 409 2629 706 
Q 2900 1003 2900 1516 
L 2900 3500 
L 3475 3500 
L 3475 0 
L 2900 0 
L 2900 538 
Q 2691 219 2414 64 
Q 2138 -91 1772 -91 
Q 1169 -91 856 284 
Q 544 659 544 1381 
z
M 1991 3584 
L 1991 3584 
z
" transform="scale(0.015625)"/>
        <path id="DejaVuSans-4e" d="M 581 4863 
L 1159 4863 
L 1159 1991 
L 2875 3500 
L 3609 3500 
L 1753 1863 
L 3688 0 
L 2938 0 
L 1159 1709 
L 1159 0 
L 581 0 
L 581 4863 
z
" transform="scale(0.015625)"/>
        <path id="DejaVuSans-27" d="M 1259 4147 
L 1259 519 
L 2022 519 
Q 2988 519 3436 956 
Q 3884 1394 3884 2338 
Q 3884 3275 3436 3711 
Q 2988 4147 2022 4147 
L 1259 4147 
z
M 628 4666 
L 1925 4666 
Q 3281 4666 3915 4102 
Q 4550 3538 4550 2338 
Q 4550 1131 3912 565 
Q 3275 0 1925 0 
L 628 0 
L 628 4666 
z
" transform="scale(0.015625)"/>
        <path id="DejaVuSans-29" d="M 628 4666 
L 3309 4666 
L 3309 4134 
L 1259 4134 
L 1259 2759 
L 3109 2759 
L 3109 2228 
L 1259 2228 
L 1259 0 
L 628 0 
L 628 4666 
z
" transform="scale(0.015625)"/>
        <path id="DejaVuSans-37" d="M -19 4666 
L 3928 4666 
L 3928 4134 
L 2272 4134 
L 2272 0 
L 1638 0 
L 1638 4134 
L -19 4134 
L -19 4666 
z
" transform="scale(0.015625)"/>
       </defs>
       <use xlink:href="#DejaVuSans-Oblique-25" transform="translate(0 0.015625)"/>
       <use xlink:href="#DejaVuSans-13" transform="translate(68.603516 -14.984326) scale(0.7)"/>
       <use xlink:href="#DejaVuSans-3" transform="translate(115.874023 0.015625)"/>
       <use xlink:href="#DejaVuSans-45" transform="translate(147.661133 0.015625)"/>
       <use xlink:href="#DejaVuSans-58" transform="translate(211.137695 0.015625)"/>
       <use xlink:href="#DejaVuSans-4f" transform="translate(274.516602 0.015625)"/>
       <use xlink:href="#DejaVuSans-4e" transform="translate(302.299805 0.015625)"/>
       <use xlink:href="#DejaVuSans-3" transform="translate(360.209961 0.015625)"/>
       <use xlink:href="#DejaVuSans-50" transform="translate(391.99707 0.015625)"/>
       <use xlink:href="#DejaVuSans-52" transform="translate(489.40918 0.015625)"/>
       <use xlink:href="#DejaVuSans-47" transform="translate(550.59082 0.015625)"/>
       <use xlink:href="#DejaVuSans-58" transform="translate(614.067383 0.015625)"/>
       <use xlink:href="#DejaVuSans-4f" transform="translate(677.446289 0.015625)"/>
       <use xlink:href="#DejaVuSans-58" transform="translate(705.229492 0.015625)"/>
       <use xlink:href="#DejaVuSans-56" transform="translate(768.608398 0.015625)"/>
       <use xlink:href="#DejaVuSans-3" transform="translate(820.708008 0.015625)"/>
       <use xlink:href="#DejaVuSans-b" transform="translate(852.495117 0.015625)"/>
       <use xlink:href="#DejaVuSans-27" transform="translate(891.508789 0.015625)"/>
       <use xlink:href="#DejaVuSans-29" transform="translate(968.510742 0.015625)"/>
       <use xlink:href="#DejaVuSans-37" transform="translate(1024.030273 0.015625)"/>
       <use xlink:href="#DejaVuSans-c" transform="translate(1085.114258 0.015625)"/>
      </g>
     </g>
    </g>
    <g id="ytick_2">
     <g id="line2d_34">
      <g>
       <use xlink:href="#md5007230e1" x="164.16" y="250.395071" style="stroke: #000000"/>
      </g>
     </g>
     <g id="text_6">
      <!-- $\delta E$ configuration split -->
      <g transform="translate(61.08 253.815071) scale(0.09 -0.09)">
       <defs>
        <path id="DejaVuSans-Oblique-348" d="M 3472 4053 
Q 3197 4272 2450 4272 
Q 1659 4272 1588 3906 
Q 1531 3619 2328 3469 
Q 2953 3353 3253 3003 
Q 3616 2581 3447 1716 
Q 3284 888 2763 400 
Q 2238 -91 1488 -91 
Q 741 -91 406 400 
Q 72 888 241 1747 
Q 363 2384 891 2900 
Q 1097 3100 1353 3213 
Q 913 3459 1000 3900 
Q 1166 4750 2544 4750 
Q 3234 4750 3566 4531 
L 3472 4053 
z
M 1753 3056 
Q 1525 2966 1306 2738 
Q 969 2384 847 1747 
Q 722 1113 919 756 
Q 1119 397 1584 397 
Q 2044 397 2381 759 
Q 2722 1122 2838 1716 
Q 2956 2338 2731 2638 
Q 2491 2959 2103 2994 
Q 1906 3013 1753 3056 
z
" transform="scale(0.015625)"/>
        <path id="DejaVuSans-Oblique-28" d="M 1081 4666 
L 4031 4666 
L 3928 4134 
L 1606 4134 
L 1338 2753 
L 3566 2753 
L 3463 2222 
L 1234 2222 
L 909 531 
L 3284 531 
L 3181 0 
L 172 0 
L 1081 4666 
z
" transform="scale(0.015625)"/>
        <path id="DejaVuSans-51" d="M 3513 2113 
L 3513 0 
L 2938 0 
L 2938 2094 
Q 2938 2591 2744 2837 
Q 2550 3084 2163 3084 
Q 1697 3084 1428 2787 
Q 1159 2491 1159 1978 
L 1159 0 
L 581 0 
L 581 3500 
L 1159 3500 
L 1159 2956 
Q 1366 3272 1645 3428 
Q 1925 3584 2291 3584 
Q 2894 3584 3203 3211 
Q 3513 2838 3513 2113 
z
" transform="scale(0.015625)"/>
        <path id="DejaVuSans-49" d="M 2375 4863 
L 2375 4384 
L 1825 4384 
Q 1516 4384 1395 4259 
Q 1275 4134 1275 3809 
L 1275 3500 
L 2222 3500 
L 2222 3053 
L 1275 3053 
L 1275 0 
L 697 0 
L 697 3053 
L 147 3053 
L 147 3500 
L 697 3500 
L 697 3744 
Q 697 4328 969 4595 
Q 1241 4863 1831 4863 
L 2375 4863 
z
" transform="scale(0.015625)"/>
        <path id="DejaVuSans-53" d="M 1159 525 
L 1159 -1331 
L 581 -1331 
L 581 3500 
L 1159 3500 
L 1159 2969 
Q 1341 3281 1617 3432 
Q 1894 3584 2278 3584 
Q 2916 3584 3314 3078 
Q 3713 2572 3713 1747 
Q 3713 922 3314 415 
Q 2916 -91 2278 -91 
Q 1894 -91 1617 61 
Q 1341 213 1159 525 
z
M 3116 1747 
Q 3116 2381 2855 2742 
Q 2594 3103 2138 3103 
Q 1681 3103 1420 2742 
Q 1159 2381 1159 1747 
Q 1159 1113 1420 752 
Q 1681 391 2138 391 
Q 2594 391 2855 752 
Q 3116 1113 3116 1747 
z
" transform="scale(0.015625)"/>
       </defs>
       <use xlink:href="#DejaVuSans-Oblique-348" transform="translate(0 0.015625)"/>
       <use xlink:href="#DejaVuSans-Oblique-28" transform="translate(61.181641 0.015625)"/>
       <use xlink:href="#DejaVuSans-3" transform="translate(124.365234 0.015625)"/>
       <use xlink:href="#DejaVuSans-46" transform="translate(156.152344 0.015625)"/>
       <use xlink:href="#DejaVuSans-52" transform="translate(211.132812 0.015625)"/>
       <use xlink:href="#DejaVuSans-51" transform="translate(272.314453 0.015625)"/>
       <use xlink:href="#DejaVuSans-49" transform="translate(335.693359 0.015625)"/>
       <use xlink:href="#DejaVuSans-4c" transform="translate(370.898438 0.015625)"/>
       <use xlink:href="#DejaVuSans-4a" transform="translate(398.681641 0.015625)"/>
       <use xlink:href="#DejaVuSans-58" transform="translate(462.158203 0.015625)"/>
       <use xlink:href="#DejaVuSans-55" transform="translate(525.537109 0.015625)"/>
       <use xlink:href="#DejaVuSans-44" transform="translate(566.650391 0.015625)"/>
       <use xlink:href="#DejaVuSans-57" transform="translate(627.929688 0.015625)"/>
       <use xlink:href="#DejaVuSans-4c" transform="translate(667.138672 0.015625)"/>
       <use xlink:href="#DejaVuSans-52" transform="translate(694.921875 0.015625)"/>
       <use xlink:href="#DejaVuSans-51" transform="translate(756.103516 0.015625)"/>
       <use xlink:href="#DejaVuSans-3" transform="translate(819.482422 0.015625)"/>
       <use xlink:href="#DejaVuSans-56" transform="translate(851.269531 0.015625)"/>
       <use xlink:href="#DejaVuSans-53" transform="translate(903.369141 0.015625)"/>
       <use xlink:href="#DejaVuSans-4f" transform="translate(966.845703 0.015625)"/>
       <use xlink:href="#DejaVuSans-4c" transform="translate(994.628906 0.015625)"/>
       <use xlink:href="#DejaVuSans-57" transform="translate(1022.412109 0.015625)"/>
      </g>
     </g>
    </g>
    <g id="ytick_3">
     <g id="line2d_35">
      <g>
       <use xlink:href="#md5007230e1" x="164.16" y="223.287908" style="stroke: #000000"/>
      </g>
     </g>
     <g id="text_7">
      <!-- $V_m$ molar volume -->
      <g transform="translate(78.99 226.707908) scale(0.09 -0.09)">
       <defs>
        <path id="DejaVuSans-Oblique-39" d="M 1319 0 
L 500 4666 
L 1119 4666 
L 1797 653 
L 4063 4666 
L 4750 4666 
L 2053 0 
L 1319 0 
z
" transform="scale(0.015625)"/>
        <path id="DejaVuSans-Oblique-50" d="M 5747 2113 
L 5338 0 
L 4763 0 
L 5166 2094 
Q 5191 2228 5203 2325 
Q 5216 2422 5216 2491 
Q 5216 2772 5059 2928 
Q 4903 3084 4622 3084 
Q 4203 3084 3875 2770 
Q 3547 2456 3450 1953 
L 3066 0 
L 2491 0 
L 2900 2094 
Q 2925 2209 2937 2307 
Q 2950 2406 2950 2484 
Q 2950 2769 2794 2926 
Q 2638 3084 2363 3084 
Q 1938 3084 1609 2770 
Q 1281 2456 1184 1953 
L 800 0 
L 225 0 
L 909 3500 
L 1484 3500 
L 1375 2956 
Q 1609 3263 1923 3423 
Q 2238 3584 2597 3584 
Q 2978 3584 3223 3384 
Q 3469 3184 3519 2828 
Q 3781 3197 4126 3390 
Q 4472 3584 4856 3584 
Q 5306 3584 5551 3325 
Q 5797 3066 5797 2591 
Q 5797 2488 5784 2364 
Q 5772 2241 5747 2113 
z
" transform="scale(0.015625)"/>
        <path id="DejaVuSans-59" d="M 191 3500 
L 800 3500 
L 1894 563 
L 2988 3500 
L 3597 3500 
L 2284 0 
L 1503 0 
L 191 3500 
z
" transform="scale(0.015625)"/>
       </defs>
       <use xlink:href="#DejaVuSans-Oblique-39" transform="translate(0 0.015625)"/>
       <use xlink:href="#DejaVuSans-Oblique-50" transform="translate(68.408203 -14.984326) scale(0.7)"/>
       <use xlink:href="#DejaVuSans-3" transform="translate(139.331055 0.015625)"/>
       <use xlink:href="#DejaVuSans-50" transform="translate(171.118164 0.015625)"/>
       <use xlink:href="#DejaVuSans-52" transform="translate(268.530273 0.015625)"/>
       <use xlink:href="#DejaVuSans-4f" transform="translate(329.711914 0.015625)"/>
       <use xlink:href="#DejaVuSans-44" transform="translate(357.495117 0.015625)"/>
       <use xlink:href="#DejaVuSans-55" transform="translate(418.774414 0.015625)"/>
       <use xlink:href="#DejaVuSans-3" transform="translate(459.887695 0.015625)"/>
       <use xlink:href="#DejaVuSans-59" transform="translate(491.674805 0.015625)"/>
       <use xlink:href="#DejaVuSans-52" transform="translate(550.854492 0.015625)"/>
       <use xlink:href="#DejaVuSans-4f" transform="translate(612.036133 0.015625)"/>
       <use xlink:href="#DejaVuSans-58" transform="translate(639.819336 0.015625)"/>
       <use xlink:href="#DejaVuSans-50" transform="translate(703.198242 0.015625)"/>
       <use xlink:href="#DejaVuSans-48" transform="translate(800.610352 0.015625)"/>
      </g>
     </g>
    </g>
    <g id="ytick_4">
     <g id="line2d_36">
      <g>
       <use xlink:href="#md5007230e1" x="164.16" y="196.180745" style="stroke: #000000"/>
      </g>
     </g>
     <g id="text_8">
      <!-- $x$ detectable fraction -->
      <g transform="translate(62.97 199.600745) scale(0.09 -0.09)">
       <defs>
        <path id="DejaVuSans-Oblique-5b" d="M 3841 3500 
L 2234 1784 
L 3219 0 
L 2559 0 
L 1819 1388 
L 531 0 
L -166 0 
L 1556 1844 
L 641 3500 
L 1300 3500 
L 1972 2234 
L 3144 3500 
L 3841 3500 
z
" transform="scale(0.015625)"/>
       </defs>
       <use xlink:href="#DejaVuSans-Oblique-5b" transform="translate(0 0.015625)"/>
       <use xlink:href="#DejaVuSans-3" transform="translate(59.179688 0.015625)"/>
       <use xlink:href="#DejaVuSans-47" transform="translate(90.966797 0.015625)"/>
       <use xlink:href="#DejaVuSans-48" transform="translate(154.443359 0.015625)"/>
       <use xlink:href="#DejaVuSans-57" transform="translate(215.966797 0.015625)"/>
       <use xlink:href="#DejaVuSans-48" transform="translate(255.175781 0.015625)"/>
       <use xlink:href="#DejaVuSans-46" transform="translate(316.699219 0.015625)"/>
       <use xlink:href="#DejaVuSans-57" transform="translate(371.679688 0.015625)"/>
       <use xlink:href="#DejaVuSans-44" transform="translate(410.888672 0.015625)"/>
       <use xlink:href="#DejaVuSans-45" transform="translate(472.167969 0.015625)"/>
       <use xlink:href="#DejaVuSans-4f" transform="translate(535.644531 0.015625)"/>
       <use xlink:href="#DejaVuSans-48" transform="translate(563.427734 0.015625)"/>
       <use xlink:href="#DejaVuSans-3" transform="translate(624.951172 0.015625)"/>
       <use xlink:href="#DejaVuSans-49" transform="translate(656.738281 0.015625)"/>
       <use xlink:href="#DejaVuSans-55" transform="translate(691.943359 0.015625)"/>
       <use xlink:href="#DejaVuSans-44" transform="translate(733.056641 0.015625)"/>
       <use xlink:href="#DejaVuSans-46" transform="translate(794.335938 0.015625)"/>
       <use xlink:href="#DejaVuSans-57" transform="translate(849.316406 0.015625)"/>
       <use xlink:href="#DejaVuSans-4c" transform="translate(888.525391 0.015625)"/>
       <use xlink:href="#DejaVuSans-52" transform="translate(916.308594 0.015625)"/>
       <use xlink:href="#DejaVuSans-51" transform="translate(977.490234 0.015625)"/>
      </g>
     </g>
    </g>
    <g id="ytick_5">
     <g id="line2d_37">
      <g>
       <use xlink:href="#md5007230e1" x="164.16" y="169.073582" style="stroke: #000000"/>
      </g>
     </g>
     <g id="text_9">
      <!-- $\eta_0$ viscosity prefactor -->
      <g transform="translate(60.81 172.493582) scale(0.09 -0.09)">
       <defs>
        <path id="DejaVuSans-Oblique-34b" d="M 3703 2113 
L 3034 -1331 
L 2459 -1331 
L 3125 2094 
Q 3222 2591 3075 2838 
Q 2931 3084 2544 3084 
Q 2078 3084 1750 2788 
Q 1425 2491 1325 1978 
L 941 0 
L 363 0 
L 1044 3500 
L 1622 3500 
L 1516 2956 
Q 1781 3272 2094 3428 
Q 2403 3584 2769 3584 
Q 3372 3584 3609 3213 
Q 3844 2838 3703 2113 
z
" transform="scale(0.015625)"/>
        <path id="DejaVuSans-5c" d="M 2059 -325 
Q 1816 -950 1584 -1140 
Q 1353 -1331 966 -1331 
L 506 -1331 
L 506 -850 
L 844 -850 
Q 1081 -850 1212 -737 
Q 1344 -625 1503 -206 
L 1606 56 
L 191 3500 
L 800 3500 
L 1894 763 
L 2988 3500 
L 3597 3500 
L 2059 -325 
z
" transform="scale(0.015625)"/>
       </defs>
       <use xlink:href="#DejaVuSans-Oblique-34b" transform="translate(0 0.015625)"/>
       <use xlink:href="#DejaVuSans-13" transform="translate(63.378906 -14.984326) scale(0.7)"/>
       <use xlink:href="#DejaVuSans-3" transform="translate(110.649414 0.015625)"/>
       <use xlink:href="#DejaVuSans-59" transform="translate(142.436523 0.015625)"/>
       <use xlink:href="#DejaVuSans-4c" transform="translate(201.616211 0.015625)"/>
       <use xlink:href="#DejaVuSans-56" transform="translate(229.399414 0.015625)"/>
       <use xlink:href="#DejaVuSans-46" transform="translate(281.499023 0.015625)"/>
       <use xlink:href="#DejaVuSans-52" transform="translate(336.479492 0.015625)"/>
       <use xlink:href="#DejaVuSans-56" transform="translate(397.661133 0.015625)"/>
       <use xlink:href="#DejaVuSans-4c" transform="translate(449.760742 0.015625)"/>
       <use xlink:href="#DejaVuSans-57" transform="translate(477.543945 0.015625)"/>
       <use xlink:href="#DejaVuSans-5c" transform="translate(516.75293 0.015625)"/>
       <use xlink:href="#DejaVuSans-3" transform="translate(575.932617 0.015625)"/>
       <use xlink:href="#DejaVuSans-53" transform="translate(607.719727 0.015625)"/>
       <use xlink:href="#DejaVuSans-55" transform="translate(671.196289 0.015625)"/>
       <use xlink:href="#DejaVuSans-48" transform="translate(710.30957 0.015625)"/>
       <use xlink:href="#DejaVuSans-49" transform="translate(771.833008 0.015625)"/>
       <use xlink:href="#DejaVuSans-44" transform="translate(807.038086 0.015625)"/>
       <use xlink:href="#DejaVuSans-46" transform="translate(868.317383 0.015625)"/>
       <use xlink:href="#DejaVuSans-57" transform="translate(923.297852 0.015625)"/>
       <use xlink:href="#DejaVuSans-52" transform="translate(962.506836 0.015625)"/>
       <use xlink:href="#DejaVuSans-55" transform="translate(1023.688477 0.015625)"/>
      </g>
     </g>
    </g>
    <g id="ytick_6">
     <g id="line2d_38">
      <g>
       <use xlink:href="#md5007230e1" x="164.16" y="141.966418" style="stroke: #000000"/>
      </g>
     </g>
     <g id="text_10">
      <!-- $\lambda$ jump distance -->
      <g transform="translate(84.75 145.386418) scale(0.09 -0.09)">
       <defs>
        <path id="DejaVuSans-Oblique-34f" d="M 2350 4316 
L 3125 0 
L 2516 0 
L 2038 2588 
L 328 0 
L -281 0 
L 1903 3356 
L 1794 3975 
Q 1725 4369 1391 4369 
L 1091 4369 
L 1184 4863 
L 1550 4856 
Q 2253 4847 2350 4316 
z
" transform="scale(0.015625)"/>
        <path id="DejaVuSans-4d" d="M 603 3500 
L 1178 3500 
L 1178 -63 
Q 1178 -731 923 -1031 
Q 669 -1331 103 -1331 
L -116 -1331 
L -116 -844 
L 38 -844 
Q 366 -844 484 -692 
Q 603 -541 603 -63 
L 603 3500 
z
M 603 4863 
L 1178 4863 
L 1178 4134 
L 603 4134 
L 603 4863 
z
" transform="scale(0.015625)"/>
       </defs>
       <use xlink:href="#DejaVuSans-Oblique-34f" transform="translate(0 0.015625)"/>
       <use xlink:href="#DejaVuSans-3" transform="translate(59.179688 0.015625)"/>
       <use xlink:href="#DejaVuSans-4d" transform="translate(90.966797 0.015625)"/>
       <use xlink:href="#DejaVuSans-58" transform="translate(118.75 0.015625)"/>
       <use xlink:href="#DejaVuSans-50" transform="translate(182.128906 0.015625)"/>
       <use xlink:href="#DejaVuSans-53" transform="translate(279.541016 0.015625)"/>
       <use xlink:href="#DejaVuSans-3" transform="translate(343.017578 0.015625)"/>
       <use xlink:href="#DejaVuSans-47" transform="translate(374.804688 0.015625)"/>
       <use xlink:href="#DejaVuSans-4c" transform="translate(438.28125 0.015625)"/>
       <use xlink:href="#DejaVuSans-56" transform="translate(466.064453 0.015625)"/>
       <use xlink:href="#DejaVuSans-57" transform="translate(518.164062 0.015625)"/>
       <use xlink:href="#DejaVuSans-44" transform="translate(557.373047 0.015625)"/>
       <use xlink:href="#DejaVuSans-51" transform="translate(618.652344 0.015625)"/>
       <use xlink:href="#DejaVuSans-46" transform="translate(682.03125 0.015625)"/>
       <use xlink:href="#DejaVuSans-48" transform="translate(737.011719 0.015625)"/>
      </g>
     </g>
    </g>
    <g id="ytick_7">
     <g id="line2d_39">
      <g>
       <use xlink:href="#md5007230e1" x="164.16" y="114.859255" style="stroke: #000000"/>
      </g>
     </g>
     <g id="text_11">
      <!-- $D^*$ fragility -->
      <g transform="translate(105.9 119.089255) scale(0.09 -0.09)">
       <defs>
        <path id="DejaVuSans-Oblique-27" d="M 1081 4666 
L 2438 4666 
Q 3519 4666 4070 4208 
Q 4622 3750 4622 2847 
Q 4622 2250 4412 1698 
Q 4203 1147 3834 769 
Q 3463 381 2891 190 
Q 2319 0 1538 0 
L 172 0 
L 1081 4666 
z
M 1613 4147 
L 909 519 
L 1734 519 
Q 2794 519 3375 1128 
Q 3956 1738 3956 2847 
Q 3956 3519 3581 3833 
Q 3206 4147 2406 4147 
L 1613 4147 
z
" transform="scale(0.015625)"/>
        <path id="DejaVuSans-d" d="M 3009 3897 
L 1888 3291 
L 3009 2681 
L 2828 2375 
L 1778 3009 
L 1778 1831 
L 1422 1831 
L 1422 3009 
L 372 2375 
L 191 2681 
L 1313 3291 
L 191 3897 
L 372 4206 
L 1422 3572 
L 1422 4750 
L 1778 4750 
L 1778 3572 
L 2828 4206 
L 3009 3897 
z
" transform="scale(0.015625)"/>
       </defs>
       <use xlink:href="#DejaVuSans-Oblique-27" transform="translate(0 0.746875)"/>
       <use xlink:href="#DejaVuSans-d" transform="translate(97.656419 42.046875) scale(0.7)"/>
       <use xlink:href="#DejaVuSans-3" transform="translate(149.02849 0.746875)"/>
       <use xlink:href="#DejaVuSans-49" transform="translate(180.815599 0.746875)"/>
       <use xlink:href="#DejaVuSans-55" transform="translate(216.020677 0.746875)"/>
       <use xlink:href="#DejaVuSans-44" transform="translate(257.133958 0.746875)"/>
       <use xlink:href="#DejaVuSans-4a" transform="translate(318.413255 0.746875)"/>
       <use xlink:href="#DejaVuSans-4c" transform="translate(381.889818 0.746875)"/>
       <use xlink:href="#DejaVuSans-4f" transform="translate(409.673021 0.746875)"/>
       <use xlink:href="#DejaVuSans-4c" transform="translate(437.456224 0.746875)"/>
       <use xlink:href="#DejaVuSans-57" transform="translate(465.239427 0.746875)"/>
       <use xlink:href="#DejaVuSans-5c" transform="translate(504.448411 0.746875)"/>
      </g>
     </g>
    </g>
    <g id="ytick_8">
     <g id="line2d_40">
      <g>
       <use xlink:href="#md5007230e1" x="164.16" y="87.752092" style="stroke: #000000"/>
      </g>
     </g>
     <g id="text_12">
      <!-- soft$_1$ softening factor -->
      <g transform="translate(61.62 91.172092) scale(0.09 -0.09)">
       <use xlink:href="#DejaVuSans-56" transform="translate(0 0.015625)"/>
       <use xlink:href="#DejaVuSans-52" transform="translate(52.099609 0.015625)"/>
       <use xlink:href="#DejaVuSans-49" transform="translate(113.28125 0.015625)"/>
       <use xlink:href="#DejaVuSans-57" transform="translate(146.486328 0.015625)"/>
       <use xlink:href="#DejaVuSans-14" transform="translate(186.652344 -14.984326) scale(0.7)"/>
       <use xlink:href="#DejaVuSans-3" transform="translate(233.922852 0.015625)"/>
       <use xlink:href="#DejaVuSans-56" transform="translate(265.709961 0.015625)"/>
       <use xlink:href="#DejaVuSans-52" transform="translate(317.80957 0.015625)"/>
       <use xlink:href="#DejaVuSans-49" transform="translate(378.991211 0.015625)"/>
       <use xlink:href="#DejaVuSans-57" transform="translate(412.196289 0.015625)"/>
       <use xlink:href="#DejaVuSans-48" transform="translate(451.405273 0.015625)"/>
       <use xlink:href="#DejaVuSans-51" transform="translate(512.928711 0.015625)"/>
       <use xlink:href="#DejaVuSans-4c" transform="translate(576.307617 0.015625)"/>
       <use xlink:href="#DejaVuSans-51" transform="translate(604.09082 0.015625)"/>
       <use xlink:href="#DejaVuSans-4a" transform="translate(667.469727 0.015625)"/>
       <use xlink:href="#DejaVuSans-3" transform="translate(730.946289 0.015625)"/>
       <use xlink:href="#DejaVuSans-49" transform="translate(762.733398 0.015625)"/>
       <use xlink:href="#DejaVuSans-44" transform="translate(797.938477 0.015625)"/>
       <use xlink:href="#DejaVuSans-46" transform="translate(859.217773 0.015625)"/>
       <use xlink:href="#DejaVuSans-57" transform="translate(914.198242 0.015625)"/>
       <use xlink:href="#DejaVuSans-52" transform="translate(953.407227 0.015625)"/>
       <use xlink:href="#DejaVuSans-55" transform="translate(1014.588867 0.015625)"/>
      </g>
     </g>
    </g>
    <g id="ytick_9">
     <g id="line2d_41">
      <g>
       <use xlink:href="#md5007230e1" x="164.16" y="60.644929" style="stroke: #000000"/>
      </g>
     </g>
     <g id="text_13">
      <!-- soft$_2$ softening factor -->
      <g transform="translate(61.62 64.064929) scale(0.09 -0.09)">
       <use xlink:href="#DejaVuSans-56" transform="translate(0 0.015625)"/>
       <use xlink:href="#DejaVuSans-52" transform="translate(52.099609 0.015625)"/>
       <use xlink:href="#DejaVuSans-49" transform="translate(113.28125 0.015625)"/>
       <use xlink:href="#DejaVuSans-57" transform="translate(146.486328 0.015625)"/>
       <use xlink:href="#DejaVuSans-15" transform="translate(186.652344 -14.984326) scale(0.7)"/>
       <use xlink:href="#DejaVuSans-3" transform="translate(233.922852 0.015625)"/>
       <use xlink:href="#DejaVuSans-56" transform="translate(265.709961 0.015625)"/>
       <use xlink:href="#DejaVuSans-52" transform="translate(317.80957 0.015625)"/>
       <use xlink:href="#DejaVuSans-49" transform="translate(378.991211 0.015625)"/>
       <use xlink:href="#DejaVuSans-57" transform="translate(412.196289 0.015625)"/>
       <use xlink:href="#DejaVuSans-48" transform="translate(451.405273 0.015625)"/>
       <use xlink:href="#DejaVuSans-51" transform="translate(512.928711 0.015625)"/>
       <use xlink:href="#DejaVuSans-4c" transform="translate(576.307617 0.015625)"/>
       <use xlink:href="#DejaVuSans-51" transform="translate(604.09082 0.015625)"/>
       <use xlink:href="#DejaVuSans-4a" transform="translate(667.469727 0.015625)"/>
       <use xlink:href="#DejaVuSans-3" transform="translate(730.946289 0.015625)"/>
       <use xlink:href="#DejaVuSans-49" transform="translate(762.733398 0.015625)"/>
       <use xlink:href="#DejaVuSans-44" transform="translate(797.938477 0.015625)"/>
       <use xlink:href="#DejaVuSans-46" transform="translate(859.217773 0.015625)"/>
       <use xlink:href="#DejaVuSans-57" transform="translate(914.198242 0.015625)"/>
       <use xlink:href="#DejaVuSans-52" transform="translate(953.407227 0.015625)"/>
       <use xlink:href="#DejaVuSans-55" transform="translate(1014.588867 0.015625)"/>
      </g>
     </g>
    </g>
    <g id="ytick_10">
     <g id="line2d_42">
      <g>
       <use xlink:href="#md5007230e1" x="164.16" y="33.537766" style="stroke: #000000"/>
      </g>
     </g>
     <g id="text_14">
      <!-- $\alpha_T$ Turnbull coefficient -->
      <g transform="translate(58.29 36.957766) scale(0.09 -0.09)">
       <defs>
        <path id="DejaVuSans-Oblique-345" d="M 2619 1628 
L 2622 2350 
Q 2625 3088 2069 3091 
Q 1653 3094 1394 2747 
Q 1069 2319 959 1747 
Q 825 1059 994 731 
Q 1169 397 1547 397 
Q 1966 397 2319 1063 
L 2619 1628 
z
M 2166 3578 
Q 3141 3594 3128 2584 
Q 3128 2584 3616 3500 
L 4128 3500 
L 3119 1603 
L 3109 919 
Q 3109 766 3194 638 
Q 3291 488 3391 488 
L 3669 488 
L 3575 0 
L 3228 0 
Q 2934 0 2722 263 
Q 2622 394 2619 669 
Q 2416 334 2066 50 
Q 1900 -81 1453 -78 
Q 722 -72 456 397 
Q 184 884 353 1747 
Q 534 2675 1009 3097 
Q 1544 3569 2166 3578 
z
" transform="scale(0.015625)"/>
        <path id="DejaVuSans-Oblique-37" d="M 378 4666 
L 4325 4666 
L 4225 4134 
L 2559 4134 
L 1759 0 
L 1125 0 
L 1925 4134 
L 275 4134 
L 378 4666 
z
" transform="scale(0.015625)"/>
       </defs>
       <use xlink:href="#DejaVuSans-Oblique-345" transform="translate(0 0.015625)"/>
       <use xlink:href="#DejaVuSans-Oblique-37" transform="translate(65.917969 -14.984326) scale(0.7)"/>
       <use xlink:href="#DejaVuSans-3" transform="translate(111.411133 0.015625)"/>
       <use xlink:href="#DejaVuSans-37" transform="translate(143.198242 0.015625)"/>
       <use xlink:href="#DejaVuSans-58" transform="translate(189.282227 0.015625)"/>
       <use xlink:href="#DejaVuSans-55" transform="translate(252.661133 0.015625)"/>
       <use xlink:href="#DejaVuSans-51" transform="translate(291.774414 0.015625)"/>
       <use xlink:href="#DejaVuSans-45" transform="translate(355.15332 0.015625)"/>
       <use xlink:href="#DejaVuSans-58" transform="translate(418.629883 0.015625)"/>
       <use xlink:href="#DejaVuSans-4f" transform="translate(482.008789 0.015625)"/>
       <use xlink:href="#DejaVuSans-4f" transform="translate(509.791992 0.015625)"/>
       <use xlink:href="#DejaVuSans-3" transform="translate(537.575195 0.015625)"/>
       <use xlink:href="#DejaVuSans-46" transform="translate(569.362305 0.015625)"/>
       <use xlink:href="#DejaVuSans-52" transform="translate(624.342773 0.015625)"/>
       <use xlink:href="#DejaVuSans-48" transform="translate(685.524414 0.015625)"/>
       <use xlink:href="#DejaVuSans-49" transform="translate(747.047852 0.015625)"/>
       <use xlink:href="#DejaVuSans-49" transform="translate(782.25293 0.015625)"/>
       <use xlink:href="#DejaVuSans-4c" transform="translate(817.458008 0.015625)"/>
       <use xlink:href="#DejaVuSans-46" transform="translate(845.241211 0.015625)"/>
       <use xlink:href="#DejaVuSans-4c" transform="translate(900.22168 0.015625)"/>
       <use xlink:href="#DejaVuSans-48" transform="translate(928.004883 0.015625)"/>
       <use xlink:href="#DejaVuSans-51" transform="translate(989.52832 0.015625)"/>
       <use xlink:href="#DejaVuSans-57" transform="translate(1052.907227 0.015625)"/>
      </g>
     </g>
    </g>
   </g>
   <g id="line2d_43">
    <path d="M 354.00922 285.905455 
L 354.00922 269.099013 
" clip-path="url(#p090011163a)" style="fill: none; stroke: #000000; stroke-width: 1.2; stroke-linecap: square"/>
   </g>
   <g id="line2d_44">
    <path d="M 353.987596 285.905455 
L 353.987596 269.099013 
" clip-path="url(#p090011163a)" style="fill: none; stroke: #000000; stroke-width: 1.2; stroke-linecap: square"/>
   </g>
   <g id="line2d_45">
    <path d="M 354.677109 258.798291 
L 354.677109 241.99185 
" clip-path="url(#p090011163a)" style="fill: none; stroke: #000000; stroke-width: 1.2; stroke-linecap: square"/>
   </g>
   <g id="line2d_46">
    <path d="M 353.104758 258.798291 
L 353.104758 241.99185 
" clip-path="url(#p090011163a)" style="fill: none; stroke: #000000; stroke-width: 1.2; stroke-linecap: square"/>
   </g>
   <g id="line2d_47">
    <path d="M 352.689636 231.691128 
L 352.689636 214.884687 
" clip-path="url(#p090011163a)" style="fill: none; stroke: #000000; stroke-width: 1.2; stroke-linecap: square"/>
   </g>
   <g id="line2d_48">
    <path d="M 355.067826 231.691128 
L 355.067826 214.884687 
" clip-path="url(#p090011163a)" style="fill: none; stroke: #000000; stroke-width: 1.2; stroke-linecap: square"/>
   </g>
   <g id="line2d_49">
    <path d="M 352.689636 204.583965 
L 352.689636 187.777524 
" clip-path="url(#p090011163a)" style="fill: none; stroke: #000000; stroke-width: 1.2; stroke-linecap: square"/>
   </g>
   <g id="line2d_50">
    <path d="M 355.067826 204.583965 
L 355.067826 187.777524 
" clip-path="url(#p090011163a)" style="fill: none; stroke: #000000; stroke-width: 1.2; stroke-linecap: square"/>
   </g>
   <g id="line2d_51">
    <path d="M 351.222082 177.476802 
L 351.222082 160.670361 
" clip-path="url(#p090011163a)" style="fill: none; stroke: #000000; stroke-width: 1.2; stroke-linecap: square"/>
   </g>
   <g id="line2d_52">
    <path d="M 356.276018 177.476802 
L 356.276018 160.670361 
" clip-path="url(#p090011163a)" style="fill: none; stroke: #000000; stroke-width: 1.2; stroke-linecap: square"/>
   </g>
   <g id="line2d_53">
    <path d="M 342.219139 150.369639 
L 342.219139 133.563198 
" clip-path="url(#p090011163a)" style="fill: none; stroke: #000000; stroke-width: 1.2; stroke-linecap: square"/>
   </g>
   <g id="line2d_54">
    <path d="M 363.622845 150.369639 
L 363.622845 133.563198 
" clip-path="url(#p090011163a)" style="fill: none; stroke: #000000; stroke-width: 1.2; stroke-linecap: square"/>
   </g>
   <g id="line2d_55">
    <path d="M 322.122564 123.262476 
L 322.122564 106.456035 
" clip-path="url(#p090011163a)" style="fill: none; stroke: #000000; stroke-width: 1.2; stroke-linecap: square"/>
   </g>
   <g id="line2d_56">
    <path d="M 377.452093 123.262476 
L 377.452093 106.456035 
" clip-path="url(#p090011163a)" style="fill: none; stroke: #000000; stroke-width: 1.2; stroke-linecap: square"/>
   </g>
   <g id="line2d_57">
    <path d="M 428.358473 96.155313 
L 428.358473 79.348872 
" clip-path="url(#p090011163a)" style="fill: none; stroke: #000000; stroke-width: 1.2; stroke-linecap: square"/>
   </g>
   <g id="line2d_58">
    <path d="M 306.452041 96.155313 
L 306.452041 79.348872 
" clip-path="url(#p090011163a)" style="fill: none; stroke: #000000; stroke-width: 1.2; stroke-linecap: square"/>
   </g>
   <g id="line2d_59">
    <path d="M 429.284891 69.04815 
L 429.284891 52.241709 
" clip-path="url(#p090011163a)" style="fill: none; stroke: #000000; stroke-width: 1.2; stroke-linecap: square"/>
   </g>
   <g id="line2d_60">
    <path d="M 305.832716 69.04815 
L 305.832716 52.241709 
" clip-path="url(#p090011163a)" style="fill: none; stroke: #000000; stroke-width: 1.2; stroke-linecap: square"/>
   </g>
   <g id="line2d_61">
    <path d="M 201.876162 41.940987 
L 201.876162 25.134545 
" clip-path="url(#p090011163a)" style="fill: none; stroke: #000000; stroke-width: 1.2; stroke-linecap: square"/>
   </g>
   <g id="line2d_62">
    <path d="M 541.725351 41.940987 
L 541.725351 25.134545 
" clip-path="url(#p090011163a)" style="fill: none; stroke: #000000; stroke-width: 1.2; stroke-linecap: square"/>
   </g>
   <g id="line2d_63">
    <path d="M 353.998448 298.944 
L 353.998448 12.096 
" clip-path="url(#p090011163a)" style="fill: none; stroke-dasharray: 7,2.8; stroke-dashoffset: 0; stroke: #000000; stroke-width: 1.4"/>
   </g>
   <g id="line2d_64">
    <path d="M 347.722666 298.944 
L 347.722666 12.096 
" clip-path="url(#p090011163a)" style="fill: none; stroke-dasharray: 1,2; stroke-dashoffset: 0; stroke: #6e6e6e"/>
   </g>
   <g id="patch_14">
    <path d="M 164.16 298.944 
L 164.16 12.096 
" style="fill: none; stroke: #000000; stroke-width: 1.1; stroke-linejoin: miter; stroke-linecap: square"/>
   </g>
   <g id="patch_15">
    <path d="M 528.048 298.944 
L 528.048 12.096 
" style="fill: none; stroke: #000000; stroke-width: 1.1; stroke-linejoin: miter; stroke-linecap: square"/>
   </g>
   <g id="patch_16">
    <path d="M 164.16 298.944 
L 528.048 298.944 
" style="fill: none; stroke: #000000; stroke-width: 1.1; stroke-linejoin: miter; stroke-linecap: square"/>
   </g>
   <g id="patch_17">
    <path d="M 164.16 12.096 
L 528.048 12.096 
" style="fill: none; stroke: #000000; stroke-width: 1.1; stroke-linejoin: miter; stroke-linecap: square"/>
   </g>
   <g id="text_15">
    <!-- baseline 17.1 mm -->
    <g transform="translate(318.002823 19.351906) scale(0.08 -0.08)">
     <defs>
      <path id="DejaVuSans-1a" d="M 525 4666 
L 3525 4666 
L 3525 4397 
L 1831 0 
L 1172 0 
L 2766 4134 
L 525 4134 
L 525 4666 
z
" transform="scale(0.015625)"/>
      <path id="DejaVuSans-11" d="M 684 794 
L 1344 794 
L 1344 0 
L 684 0 
L 684 794 
z
" transform="scale(0.015625)"/>
     </defs>
     <use xlink:href="#DejaVuSans-45"/>
     <use xlink:href="#DejaVuSans-44" transform="translate(63.484375 0)"/>
     <use xlink:href="#DejaVuSans-56" transform="translate(124.765625 0)"/>
     <use xlink:href="#DejaVuSans-48" transform="translate(176.859375 0)"/>
     <use xlink:href="#DejaVuSans-4f" transform="translate(238.390625 0)"/>
     <use xlink:href="#DejaVuSans-4c" transform="translate(266.171875 0)"/>
     <use xlink:href="#DejaVuSans-51" transform="translate(293.953125 0)"/>
     <use xlink:href="#DejaVuSans-48" transform="translate(357.328125 0)"/>
     <use xlink:href="#DejaVuSans-3" transform="translate(418.859375 0)"/>
     <use xlink:href="#DejaVuSans-14" transform="translate(450.640625 0)"/>
     <use xlink:href="#DejaVuSans-1a" transform="translate(514.265625 0)"/>
     <use xlink:href="#DejaVuSans-11" transform="translate(577.890625 0)"/>
     <use xlink:href="#DejaVuSans-14" transform="translate(609.671875 0)"/>
     <use xlink:href="#DejaVuSans-3" transform="translate(673.296875 0)"/>
     <use xlink:href="#DejaVuSans-50" transform="translate(705.078125 0)"/>
     <use xlink:href="#DejaVuSans-50" transform="translate(802.484375 0)"/>
    </g>
   </g>
   <g id="text_16">
    <!-- measured -->
    <g style="fill: #2b2b2b" transform="translate(328.73751 274.916007) scale(0.076 -0.076)">
     <use xlink:href="#DejaVuSans-50"/>
     <use xlink:href="#DejaVuSans-48" transform="translate(97.40625 0)"/>
     <use xlink:href="#DejaVuSans-44" transform="translate(158.9375 0)"/>
     <use xlink:href="#DejaVuSans-56" transform="translate(220.21875 0)"/>
     <use xlink:href="#DejaVuSans-58" transform="translate(272.3125 0)"/>
     <use xlink:href="#DejaVuSans-55" transform="translate(335.6875 0)"/>
     <use xlink:href="#DejaVuSans-48" transform="translate(374.59375 0)"/>
     <use xlink:href="#DejaVuSans-47" transform="translate(436.125 0)"/>
    </g>
    <!-- 15 mm -->
    <g style="fill: #2b2b2b" transform="translate(334.276603 284.037492) scale(0.076 -0.076)">
     <defs>
      <path id="DejaVuSans-18" d="M 691 4666 
L 3169 4666 
L 3169 4134 
L 1269 4134 
L 1269 2991 
Q 1406 3038 1543 3061 
Q 1681 3084 1819 3084 
Q 2600 3084 3056 2656 
Q 3513 2228 3513 1497 
Q 3513 744 3044 326 
Q 2575 -91 1722 -91 
Q 1428 -91 1123 -41 
Q 819 9 494 109 
L 494 744 
Q 775 591 1075 516 
Q 1375 441 1709 441 
Q 2250 441 2565 725 
Q 2881 1009 2881 1497 
Q 2881 1984 2565 2268 
Q 2250 2553 1709 2553 
Q 1456 2553 1204 2497 
Q 953 2441 691 2322 
L 691 4666 
z
" transform="scale(0.015625)"/>
     </defs>
     <use xlink:href="#DejaVuSans-14"/>
     <use xlink:href="#DejaVuSans-18" transform="translate(63.625 0)"/>
     <use xlink:href="#DejaVuSans-3" transform="translate(127.25 0)"/>
     <use xlink:href="#DejaVuSans-50" transform="translate(159.03125 0)"/>
     <use xlink:href="#DejaVuSans-50" transform="translate(256.4375 0)"/>
    </g>
   </g>
  </g>
 </g>
 <defs>
  <clipPath id="p090011163a">
   <rect x="164.16" y="12.096" width="363.888" height="286.848"/>
  </clipPath>
 </defs>
 <defs>
  <pattern id="h22903326e9" patternUnits="userSpaceOnUse" x="0" y="0" width="72" height="72">
   <rect x="0" y="0" width="73" height="73" fill="#d9d9d9"/>
   <path d="M -36 36 
L 36 -36 
M -33 39 
L 39 -33 
M -30 42 
L 42 -30 
M -27 45 
L 45 -27 
M -24 48 
L 48 -24 
M -21 51 
L 51 -21 
M -18 54 
L 54 -18 
M -15 57 
L 57 -15 
M -12 60 
L 60 -12 
M -9 63 
L 63 -9 
M -6 66 
L 66 -6 
M -3 69 
L 69 -3 
M 0 72 
L 72 0 
M 3 75 
L 75 3 
M 6 78 
L 78 6 
M 9 81 
L 81 9 
M 12 84 
L 84 12 
M 15 87 
L 87 15 
M 18 90 
L 90 18 
M 21 93 
L 93 21 
M 24 96 
L 96 24 
M 27 99 
L 99 27 
M 30 102 
L 102 30 
M 33 105 
L 105 33 
M 36 108 
L 108 36 
" style="fill: #000000; stroke: #000000; stroke-width: 1.0; stroke-linecap: butt; stroke-linejoin: miter"/>
  </pattern>
 </defs>
</svg>
